<?xml version="1.0" standalone="no"?>
<!DOCTYPE svg PUBLIC "-//W3C//DTD SVG 20010904//EN"
 "http://www.w3.org/TR/2001/REC-SVG-20010904/DTD/svg10.dtd">
<svg version="1.0" xmlns="http://www.w3.org/2000/svg"
 width="1040.000000pt" height="1040.000000pt" viewBox="0 0 1040.000000 1040.000000"
 preserveAspectRatio="xMidYMid meet">
<metadata>
Created by potrace 1.14, written by Peter Selinger 2001-2017
</metadata>
<g transform="translate(0.000000,1040.000000) scale(0.100000,-0.100000)"
fill="#000000" stroke="none">
<path d="M6949 10391 c-141 -28 -246 -94 -471 -291 -15 -14 -34 -29 -41 -35
-7 -5 -40 -33 -72 -61 -33 -28 -71 -59 -84 -70 -13 -10 -31 -26 -40 -34 -9 -8
-32 -27 -51 -42 -19 -15 -48 -39 -65 -53 -16 -15 -48 -41 -69 -58 -22 -18 -47
-40 -58 -49 -10 -10 -20 -18 -22 -18 -2 0 -18 -13 -35 -29 -18 -17 -50 -45
-73 -63 -22 -18 -51 -42 -64 -53 -12 -11 -37 -31 -54 -45 -18 -14 -38 -30 -44
-37 -7 -6 -42 -35 -77 -64 -35 -29 -66 -55 -69 -58 -3 -4 -32 -28 -65 -55 -33
-28 -67 -57 -77 -65 -9 -9 -55 -47 -102 -85 -47 -39 -86 -73 -86 -78 0 -4 -4
-8 -10 -8 -5 0 -18 -8 -28 -17 -11 -10 -36 -32 -58 -50 -21 -17 -49 -39 -60
-50 -12 -10 -43 -36 -69 -58 -26 -22 -56 -47 -66 -57 -11 -9 -37 -30 -59 -48
-21 -17 -51 -43 -67 -56 -15 -14 -44 -37 -63 -52 -19 -15 -42 -34 -51 -42 -8
-8 -37 -33 -64 -55 -26 -22 -53 -44 -59 -50 -6 -5 -38 -32 -71 -60 -33 -27
-65 -54 -72 -60 -6 -5 -28 -23 -49 -40 -20 -16 -49 -42 -65 -57 -15 -15 -35
-30 -42 -35 -15 -8 -105 -83 -139 -115 -10 -10 -20 -18 -23 -18 -2 0 -15 -10
-28 -22 -45 -43 -109 -98 -113 -98 -3 0 -20 -14 -40 -32 -19 -18 -44 -39 -55
-48 -11 -8 -37 -29 -57 -47 -51 -44 -75 -64 -112 -93 -18 -14 -45 -37 -60 -52
-16 -16 -31 -28 -34 -28 -3 0 -18 -12 -33 -26 -15 -14 -45 -40 -67 -58 -21
-17 -43 -36 -50 -41 -6 -6 -51 -44 -101 -85 -49 -41 -95 -80 -101 -85 -6 -6
-39 -33 -73 -60 -33 -28 -61 -53 -61 -57 0 -5 -7 -8 -15 -8 -8 0 -15 -4 -15
-8 0 -4 -21 -24 -47 -44 -27 -20 -65 -52 -85 -71 -21 -19 -52 -46 -70 -60 -18
-14 -43 -34 -55 -46 -12 -12 -27 -21 -33 -21 -5 0 -10 -4 -10 -8 0 -5 -28 -31
-62 -59 -35 -28 -73 -60 -86 -71 -13 -11 -41 -35 -64 -54 -23 -18 -55 -45 -72
-61 -17 -15 -52 -44 -78 -64 -27 -21 -48 -41 -48 -45 0 -4 -5 -8 -11 -8 -7 0
-17 -6 -23 -14 -6 -7 -108 -94 -226 -192 -118 -98 -220 -183 -226 -189 -25
-22 -72 -62 -124 -104 -30 -25 -57 -47 -60 -50 -3 -4 -59 -51 -125 -106 -66
-55 -129 -107 -140 -116 -11 -10 -54 -46 -96 -81 -156 -131 -183 -153 -193
-163 -6 -6 -65 -55 -131 -109 -149 -124 -206 -181 -250 -257 -54 -92 -79 -187
-80 -299 0 -143 17 -211 82 -323 31 -53 127 -158 175 -192 59 -41 165 -86 236
-100 9 -2 17 -4 17 -5 0 -1 7 -3 15 -5 8 -2 42 -11 75 -20 33 -9 67 -18 75
-20 8 -2 76 -20 150 -40 74 -20 142 -37 151 -40 8 -2 39 -10 67 -19 29 -8 52
-12 52 -9 0 3 6 0 13 -6 8 -6 31 -13 53 -17 21 -3 57 -12 79 -19 22 -7 65 -19
95 -26 30 -7 61 -17 68 -22 7 -6 15 -7 18 -4 3 3 29 -3 57 -12 43 -15 110 -32
139 -35 3 -1 10 -4 14 -8 4 -5 22 -8 40 -8 18 0 35 -4 38 -9 3 -5 23 -12 43
-15 21 -4 58 -13 83 -21 25 -8 57 -16 72 -19 15 -3 33 -8 38 -11 6 -4 26 -9
43 -12 18 -3 50 -11 72 -18 22 -7 78 -22 125 -34 47 -12 101 -26 120 -31 19
-5 66 -19 104 -30 37 -11 78 -22 90 -24 35 -7 176 -45 184 -50 5 -3 19 -7 33
-10 103 -21 111 -25 104 -46 -8 -24 -16 -58 -22 -92 -3 -16 -10 -28 -15 -28
-5 0 -7 -4 -4 -8 5 -9 0 -32 -34 -152 -11 -41 -23 -86 -26 -100 -3 -14 -9 -38
-14 -55 -6 -16 -15 -50 -22 -75 -6 -25 -13 -49 -14 -55 -2 -5 -5 -19 -8 -30
-2 -11 -19 -72 -36 -135 -18 -63 -36 -131 -41 -150 -5 -19 -12 -44 -15 -55 -3
-11 -7 -29 -9 -40 -4 -19 -33 -125 -54 -192 -5 -18 -7 -33 -4 -33 3 0 1 -6 -5
-12 -6 -7 -10 -16 -11 -21 0 -6 -13 -74 -16 -87 -1 -3 -5 -12 -8 -20 -6 -14
-45 -157 -52 -190 -2 -8 -17 -67 -35 -130 -17 -63 -33 -123 -35 -132 -2 -10
-16 -62 -30 -115 -15 -54 -28 -105 -30 -113 -5 -27 -56 -215 -62 -230 -3 -8
-8 -28 -10 -45 -3 -16 -8 -32 -12 -35 -5 -3 -8 -12 -8 -20 0 -8 -10 -51 -22
-95 -13 -44 -25 -88 -27 -97 -4 -19 -6 -26 -24 -93 -6 -22 -15 -58 -21 -80 -5
-22 -14 -51 -19 -65 -10 -24 -15 -45 -26 -100 -3 -14 -9 -38 -14 -55 -23 -73
-34 -231 -18 -241 5 -3 6 -9 3 -13 -2 -5 4 -40 14 -79 55 -211 234 -382 456
-438 51 -13 212 -12 267 1 70 16 152 52 208 89 43 29 54 38 103 79 12 10 44
37 71 60 28 23 61 52 75 64 14 13 31 26 36 30 16 12 129 107 135 113 4 4 150
126 263 220 10 8 29 24 41 35 13 11 43 36 67 57 24 20 54 44 66 55 12 10 34
27 48 38 14 11 33 27 43 36 9 9 37 34 62 54 58 48 133 111 185 155 22 19 58
49 79 65 21 17 51 42 67 58 15 15 30 27 33 27 3 0 16 10 28 23 13 12 37 33 54
47 35 28 54 44 294 245 92 77 184 154 205 170 21 17 55 46 76 65 21 19 52 46
70 60 17 14 39 32 48 40 9 8 37 31 61 51 25 20 55 45 66 55 12 11 41 35 64 54
23 19 52 43 64 54 11 10 41 35 66 55 25 20 47 38 50 41 3 3 61 52 130 110 69
57 127 106 130 109 3 4 25 22 50 42 25 20 55 46 68 57 13 11 41 35 64 54 23
18 46 38 52 43 6 6 47 40 90 75 44 36 89 74 100 85 12 11 36 31 54 45 19 14
49 40 68 57 19 18 37 33 39 33 3 0 13 8 23 17 10 10 38 34 61 53 24 19 55 45
70 57 43 37 71 61 180 151 57 48 117 99 133 115 16 15 32 27 36 27 4 0 14 9
22 20 8 11 20 20 27 20 7 0 13 3 13 8 0 4 36 36 80 72 44 36 80 68 80 73 0 4
5 7 11 7 7 0 19 8 28 18 9 9 41 38 71 62 30 25 60 49 66 55 7 5 27 22 45 38
70 57 85 69 115 97 17 15 50 42 74 59 24 17 39 31 34 31 -5 0 3 8 16 17 29 20
36 26 71 56 14 12 48 40 74 62 27 22 57 48 67 58 10 9 18 15 18 12 0 -2 13 9
29 24 16 16 46 42 67 57 21 16 50 40 64 54 15 14 41 36 60 50 18 14 39 30 45
37 7 7 56 49 110 93 54 44 103 86 109 93 7 7 30 26 50 42 55 43 107 87 128
108 10 9 23 17 29 17 5 0 7 5 4 10 -3 6 -1 10 5 10 6 0 43 28 83 62 39 34 78
66 85 72 7 6 21 18 31 26 9 8 44 37 76 65 62 51 105 93 140 135 30 37 82 139
96 190 7 25 14 52 17 60 7 25 7 203 0 241 -23 117 -102 256 -186 330 -58 51
-102 83 -125 92 -11 4 -34 14 -52 23 -28 13 -91 33 -155 49 -8 2 -26 7 -40 13
-14 5 -31 7 -37 5 -7 -3 -13 -1 -13 4 0 5 -8 9 -17 10 -19 1 -58 10 -58 13 0
1 -7 3 -15 5 -27 5 -215 56 -230 62 -8 3 -22 7 -30 8 -36 6 -70 14 -78 19 -5
3 -19 7 -33 10 -25 5 -157 40 -219 57 -85 24 -107 30 -130 35 -14 3 -54 13
-90 23 -36 11 -78 22 -95 27 -35 9 -42 11 -52 14 -5 1 -12 2 -17 1 -4 -1 -14
4 -22 10 -8 6 -14 9 -14 6 0 -4 -18 0 -40 8 -22 8 -40 12 -40 10 0 -3 -17 2
-37 9 -31 12 -97 30 -188 51 -5 1 -17 5 -25 8 -8 3 -35 10 -60 16 -25 7 -53
14 -62 16 -10 3 -26 7 -35 10 -17 4 -162 43 -295 79 -31 8 -67 17 -80 20 -12
2 -35 9 -49 14 -14 6 -43 13 -64 16 -21 4 -45 12 -53 19 -8 6 -17 11 -19 9 -2
-2 -17 -1 -34 3 -22 5 -28 11 -25 23 4 14 38 142 61 232 2 8 11 40 20 70 9 30
18 65 21 78 2 12 16 64 30 115 22 78 33 122 48 182 11 44 20 71 24 80 3 5 7
23 9 40 2 16 10 48 18 70 8 22 17 51 19 65 7 39 43 172 55 203 6 15 10 31 9
35 -1 4 1 14 4 22 8 21 29 99 34 123 2 11 15 59 28 106 14 47 27 97 30 111 3
14 19 75 36 135 17 61 32 117 34 125 2 8 11 42 20 75 9 33 19 68 21 78 2 10 7
27 10 37 3 10 8 28 10 39 6 26 6 26 55 206 22 83 42 157 44 166 3 9 19 69 36
135 18 65 34 126 35 134 2 8 4 15 5 15 1 0 3 7 5 15 2 8 11 42 20 75 9 33 18
67 20 75 2 8 4 17 5 20 1 3 3 10 4 15 1 6 7 28 14 50 18 63 25 115 24 187 0
64 -17 165 -31 197 -46 98 -68 139 -83 152 -10 9 -18 21 -18 26 0 20 -144 143
-167 143 -7 0 -13 4 -13 8 0 9 -38 25 -125 54 -65 21 -223 31 -286 19z"/>
</g>
</svg>
