<svg width="225" height="260" viewBox="0 0 225 260" fill="none" xmlns="http://www.w3.org/2000/svg">
<path fill-rule="evenodd" clip-rule="evenodd" d="M167.24 2.39311C169.999 4.14709 172.127 6.73462 173.314 9.77938C174.501 12.8241 174.685 16.1673 173.839 19.3228L153.974 93.4623L213.342 109.37C216.057 110.096 218.521 111.553 220.466 113.581C222.411 115.609 223.763 118.131 224.373 120.872C224.984 123.613 224.83 126.469 223.929 129.129C223.028 131.788 221.414 134.149 219.263 135.955L75.6368 256.396C73.1352 258.5 70.0267 259.75 66.7635 259.966C63.5004 260.182 60.2529 259.352 57.4935 257.597C54.7341 255.842 52.6068 253.253 51.4211 250.207C50.2354 247.161 50.0532 243.817 50.9008 240.662L70.7665 166.522L11.3981 150.614C8.68294 149.888 6.21874 148.432 4.27374 146.404C2.32874 144.376 0.977443 141.854 0.366914 139.113C-0.243616 136.371 -0.0899886 133.515 0.811075 130.856C1.71214 128.196 3.32612 125.835 5.47737 124.029L149.103 3.58839C151.606 1.49039 154.714 0.244773 157.975 0.0324894C161.236 -0.179794 164.48 0.65232 167.236 2.40794L167.24 2.39311Z" fill="url(#paint0_linear)"/>
<defs>
<linearGradient id="paint0_linear" x1="148.126" y1="-3.44928" x2="76.6094" y2="263.453" gradientUnits="userSpaceOnUse">
<stop stop-color="#6139D0"/>
<stop offset="1" stop-color="#A77AFF"/>
</linearGradient>
</defs>
</svg>
